<?xml version="1.0" encoding="UTF-8" standalone="no"?>
<!-- Created with Inkscape (http://www.inkscape.org/) -->

<svg
   width="210mm"
   height="297mm"
   viewBox="0 0 210 297"
   version="1.1"
   id="svg1"
   inkscape:version="1.4.3 (0d15f75, 2025-12-25)"
   sodipodi:docname="dummy_normal.svg"
   xmlns:inkscape="http://www.inkscape.org/namespaces/inkscape"
   xmlns:sodipodi="http://sodipodi.sourceforge.net/DTD/sodipodi-0.dtd"
   xmlns="http://www.w3.org/2000/svg"
   xmlns:svg="http://www.w3.org/2000/svg">
  <sodipodi:namedview
     id="namedview1"
     pagecolor="#ffffff"
     bordercolor="#999999"
     borderopacity="1"
     inkscape:showpageshadow="2"
     inkscape:pageopacity="0"
     inkscape:pagecheckerboard="0"
     inkscape:deskcolor="#d1d1d1"
     inkscape:document-units="mm"
     inkscape:clip-to-page="false"
     inkscape:zoom="1"
     inkscape:cx="350"
     inkscape:cy="724"
     inkscape:window-width="1440"
     inkscape:window-height="830"
     inkscape:window-x="-6"
     inkscape:window-y="-6"
     inkscape:window-maximized="1"
     inkscape:current-layer="layer3" />
  <defs
     id="defs1">
    <inkscape:path-effect
       effect="skeletal"
       id="path-effect92"
       is_visible="true"
       lpeversion="1"
       pattern="M 0,4.9921382 C 0,2.2364779 2.2364779,0 4.9921382,0 c 2.7556604,0 4.9921383,2.2364779 4.9921383,4.9921382 0,2.7556604 -2.2364779,4.9921383 -4.9921383,4.9921383 C 2.2364779,9.9842765 0,7.7477986 0,4.9921382 Z"
       copytype="single_stretched"
       prop_scale="1"
       scale_y_rel="false"
       spacing="0"
       normal_offset="0"
       tang_offset="0"
       prop_units="false"
       vertical_pattern="false"
       hide_knot="false"
       fuse_tolerance="0" />
    <inkscape:path-effect
       effect="skeletal"
       id="path-effect91"
       is_visible="true"
       lpeversion="1"
       pattern="M 0,4.9921382 C 0,2.2364779 2.2364779,0 4.9921382,0 c 2.7556604,0 4.9921383,2.2364779 4.9921383,4.9921382 0,2.7556604 -2.2364779,4.9921383 -4.9921383,4.9921383 C 2.2364779,9.9842765 0,7.7477986 0,4.9921382 Z"
       copytype="single_stretched"
       prop_scale="1"
       scale_y_rel="false"
       spacing="0"
       normal_offset="0"
       tang_offset="0"
       prop_units="false"
       vertical_pattern="false"
       hide_knot="false"
       fuse_tolerance="0" />
    <inkscape:path-effect
       effect="skeletal"
       id="path-effect88"
       is_visible="true"
       lpeversion="1"
       pattern="M 0,4.9921382 C 0,2.2364779 2.2364779,0 4.9921382,0 c 2.7556604,0 4.9921383,2.2364779 4.9921383,4.9921382 0,2.7556604 -2.2364779,4.9921383 -4.9921383,4.9921383 C 2.2364779,9.9842765 0,7.7477986 0,4.9921382 Z"
       copytype="single_stretched"
       prop_scale="1"
       scale_y_rel="false"
       spacing="0"
       normal_offset="0"
       tang_offset="0"
       prop_units="false"
       vertical_pattern="false"
       hide_knot="false"
       fuse_tolerance="0" />
    <inkscape:path-effect
       effect="spiro"
       id="path-effect86"
       is_visible="true"
       lpeversion="1" />
    <inkscape:path-effect
       effect="skeletal"
       id="path-effect79"
       is_visible="true"
       lpeversion="1"
       pattern="M 0,4.9921382 C 0,2.2364779 2.2364779,0 4.9921382,0 c 2.7556604,0 4.9921383,2.2364779 4.9921383,4.9921382 0,2.7556604 -2.2364779,4.9921383 -4.9921383,4.9921383 C 2.2364779,9.9842765 0,7.7477986 0,4.9921382 Z"
       copytype="single_stretched"
       prop_scale="1"
       scale_y_rel="false"
       spacing="0"
       normal_offset="0"
       tang_offset="0"
       prop_units="false"
       vertical_pattern="false"
       hide_knot="false"
       fuse_tolerance="0" />
    <inkscape:path-effect
       effect="skeletal"
       id="path-effect77"
       is_visible="true"
       lpeversion="1"
       pattern="M 0,4.9921382 C 0,2.2364779 2.2364779,0 4.9921382,0 c 2.7556604,0 4.9921383,2.2364779 4.9921383,4.9921382 0,2.7556604 -2.2364779,4.9921383 -4.9921383,4.9921383 C 2.2364779,9.9842765 0,7.7477986 0,4.9921382 Z"
       copytype="single_stretched"
       prop_scale="1"
       scale_y_rel="false"
       spacing="0"
       normal_offset="0"
       tang_offset="0"
       prop_units="false"
       vertical_pattern="false"
       hide_knot="false"
       fuse_tolerance="0" />
    <inkscape:path-effect
       effect="skeletal"
       id="path-effect75"
       is_visible="true"
       lpeversion="1"
       pattern="M 0,4.9921382 C 0,2.2364779 2.2364779,0 4.9921382,0 c 2.7556604,0 4.9921383,2.2364779 4.9921383,4.9921382 0,2.7556604 -2.2364779,4.9921383 -4.9921383,4.9921383 C 2.2364779,9.9842765 0,7.7477986 0,4.9921382 Z"
       copytype="single_stretched"
       prop_scale="1"
       scale_y_rel="false"
       spacing="0"
       normal_offset="0"
       tang_offset="0"
       prop_units="false"
       vertical_pattern="false"
       hide_knot="false"
       fuse_tolerance="0" />
    <inkscape:path-effect
       effect="spiro"
       id="path-effect73"
       is_visible="true"
       lpeversion="1" />
    <inkscape:path-effect
       effect="skeletal"
       id="path-effect58"
       is_visible="true"
       lpeversion="1"
       pattern="M 0,4.9921382 C 0,2.2364779 2.2364779,0 4.9921382,0 c 2.7556604,0 4.9921383,2.2364779 4.9921383,4.9921382 0,2.7556604 -2.2364779,4.9921383 -4.9921383,4.9921383 C 2.2364779,9.9842765 0,7.7477986 0,4.9921382 Z"
       copytype="single_stretched"
       prop_scale="1"
       scale_y_rel="false"
       spacing="0"
       normal_offset="0"
       tang_offset="0"
       prop_units="false"
       vertical_pattern="false"
       hide_knot="false"
       fuse_tolerance="0" />
    <inkscape:path-effect
       effect="skeletal"
       id="path-effect56"
       is_visible="true"
       lpeversion="1"
       pattern="M 0,4.9921382 C 0,2.2364779 2.2364779,0 4.9921382,0 c 2.7556604,0 4.9921383,2.2364779 4.9921383,4.9921382 0,2.7556604 -2.2364779,4.9921383 -4.9921383,4.9921383 C 2.2364779,9.9842765 0,7.7477986 0,4.9921382 Z"
       copytype="single_stretched"
       prop_scale="1"
       scale_y_rel="false"
       spacing="0"
       normal_offset="0"
       tang_offset="0"
       prop_units="false"
       vertical_pattern="false"
       hide_knot="false"
       fuse_tolerance="0" />
    <inkscape:path-effect
       effect="spiro"
       id="path-effect54"
       is_visible="true"
       lpeversion="1" />
    <inkscape:path-effect
       effect="skeletal"
       id="path-effect21"
       is_visible="true"
       lpeversion="1"
       pattern="M 0,4.9921382 C 0,2.2364779 2.2364779,0 4.9921382,0 c 2.7556604,0 4.9921383,2.2364779 4.9921383,4.9921382 0,2.7556604 -2.2364779,4.9921383 -4.9921383,4.9921383 C 2.2364779,9.9842765 0,7.7477986 0,4.9921382 Z"
       copytype="single_stretched"
       prop_scale="1"
       scale_y_rel="false"
       spacing="0"
       normal_offset="0"
       tang_offset="0"
       prop_units="false"
       vertical_pattern="false"
       hide_knot="false"
       fuse_tolerance="0" />
    <inkscape:path-effect
       effect="spiro"
       id="path-effect20"
       is_visible="true"
       lpeversion="1" />
    <inkscape:path-effect
       effect="skeletal"
       id="path-effect19"
       is_visible="true"
       lpeversion="1"
       pattern="M 0,4.9921382 C 0,2.2364779 2.2364779,0 4.9921382,0 c 2.7556604,0 4.9921383,2.2364779 4.9921383,4.9921382 0,2.7556604 -2.2364779,4.9921383 -4.9921383,4.9921383 C 2.2364779,9.9842765 0,7.7477986 0,4.9921382 Z"
       copytype="single_stretched"
       prop_scale="1"
       scale_y_rel="false"
       spacing="0"
       normal_offset="0"
       tang_offset="0"
       prop_units="false"
       vertical_pattern="false"
       hide_knot="false"
       fuse_tolerance="0" />
    <inkscape:path-effect
       effect="spiro"
       id="path-effect18"
       is_visible="true"
       lpeversion="1" />
    <inkscape:path-effect
       effect="skeletal"
       id="path-effect17"
       is_visible="true"
       lpeversion="1"
       pattern="M 0,4.9921382 C 0,2.2364779 2.2364779,0 4.9921382,0 c 2.7556604,0 4.9921383,2.2364779 4.9921383,4.9921382 0,2.7556604 -2.2364779,4.9921383 -4.9921383,4.9921383 C 2.2364779,9.9842765 0,7.7477986 0,4.9921382 Z"
       copytype="single_stretched"
       prop_scale="1"
       scale_y_rel="false"
       spacing="0"
       normal_offset="0"
       tang_offset="0"
       prop_units="false"
       vertical_pattern="false"
       hide_knot="false"
       fuse_tolerance="0" />
    <inkscape:path-effect
       effect="spiro"
       id="path-effect16"
       is_visible="true"
       lpeversion="1" />
    <inkscape:path-effect
       effect="skeletal"
       id="path-effect15"
       is_visible="true"
       lpeversion="1"
       pattern="M 0,4.9921382 C 0,2.2364779 2.2364779,0 4.9921382,0 c 2.7556604,0 4.9921383,2.2364779 4.9921383,4.9921382 0,2.7556604 -2.2364779,4.9921383 -4.9921383,4.9921383 C 2.2364779,9.9842765 0,7.7477986 0,4.9921382 Z"
       copytype="single_stretched"
       prop_scale="1"
       scale_y_rel="false"
       spacing="0"
       normal_offset="0"
       tang_offset="0"
       prop_units="false"
       vertical_pattern="false"
       hide_knot="false"
       fuse_tolerance="0" />
    <inkscape:path-effect
       effect="spiro"
       id="path-effect14"
       is_visible="true"
       lpeversion="1" />
    <inkscape:path-effect
       effect="skeletal"
       id="path-effect13"
       is_visible="true"
       lpeversion="1"
       pattern="M 0,4.9921382 C 0,2.2364779 2.2364779,0 4.9921382,0 c 2.7556604,0 4.9921383,2.2364779 4.9921383,4.9921382 0,2.7556604 -2.2364779,4.9921383 -4.9921383,4.9921383 C 2.2364779,9.9842765 0,7.7477986 0,4.9921382 Z"
       copytype="single_stretched"
       prop_scale="1"
       scale_y_rel="false"
       spacing="0"
       normal_offset="0"
       tang_offset="0"
       prop_units="false"
       vertical_pattern="false"
       hide_knot="false"
       fuse_tolerance="0" />
    <inkscape:path-effect
       effect="spiro"
       id="path-effect12"
       is_visible="true"
       lpeversion="1" />
    <inkscape:path-effect
       effect="skeletal"
       id="path-effect58-9"
       is_visible="true"
       lpeversion="1"
       pattern="M 0,4.9921382 C 0,2.2364779 2.2364779,0 4.9921382,0 c 2.7556604,0 4.9921383,2.2364779 4.9921383,4.9921382 0,2.7556604 -2.2364779,4.9921383 -4.9921383,4.9921383 C 2.2364779,9.9842765 0,7.7477986 0,4.9921382 Z"
       copytype="single_stretched"
       prop_scale="1"
       scale_y_rel="false"
       spacing="0"
       normal_offset="0"
       tang_offset="0"
       prop_units="false"
       vertical_pattern="false"
       hide_knot="false"
       fuse_tolerance="0" />
    <inkscape:path-effect
       effect="spiro"
       id="path-effect86-0"
       is_visible="true"
       lpeversion="1" />
    <inkscape:path-effect
       effect="skeletal"
       id="path-effect88-1"
       is_visible="true"
       lpeversion="1"
       pattern="M 0,4.9921382 C 0,2.2364779 2.2364779,0 4.9921382,0 c 2.7556604,0 4.9921383,2.2364779 4.9921383,4.9921382 0,2.7556604 -2.2364779,4.9921383 -4.9921383,4.9921383 C 2.2364779,9.9842765 0,7.7477986 0,4.9921382 Z"
       copytype="single_stretched"
       prop_scale="1"
       scale_y_rel="false"
       spacing="0"
       normal_offset="0"
       tang_offset="0"
       prop_units="false"
       vertical_pattern="false"
       hide_knot="false"
       fuse_tolerance="0" />
    <inkscape:path-effect
       effect="spiro"
       id="path-effect86-0-0"
       is_visible="true"
       lpeversion="1" />
    <inkscape:path-effect
       effect="skeletal"
       id="path-effect88-1-1"
       is_visible="true"
       lpeversion="1"
       pattern="M 0,4.9921382 C 0,2.2364779 2.2364779,0 4.9921382,0 c 2.7556604,0 4.9921383,2.2364779 4.9921383,4.9921382 0,2.7556604 -2.2364779,4.9921383 -4.9921383,4.9921383 C 2.2364779,9.9842765 0,7.7477986 0,4.9921382 Z"
       copytype="single_stretched"
       prop_scale="1"
       scale_y_rel="false"
       spacing="0"
       normal_offset="0"
       tang_offset="0"
       prop_units="false"
       vertical_pattern="false"
       hide_knot="false"
       fuse_tolerance="0" />
    <inkscape:path-effect
       effect="spiro"
       id="path-effect86-0-0-7"
       is_visible="true"
       lpeversion="1" />
    <inkscape:path-effect
       effect="skeletal"
       id="path-effect88-1-1-7"
       is_visible="true"
       lpeversion="1"
       pattern="M 0,4.9921382 C 0,2.2364779 2.2364779,0 4.9921382,0 c 2.7556604,0 4.9921383,2.2364779 4.9921383,4.9921382 0,2.7556604 -2.2364779,4.9921383 -4.9921383,4.9921383 C 2.2364779,9.9842765 0,7.7477986 0,4.9921382 Z"
       copytype="single_stretched"
       prop_scale="1"
       scale_y_rel="false"
       spacing="0"
       normal_offset="0"
       tang_offset="0"
       prop_units="false"
       vertical_pattern="false"
       hide_knot="false"
       fuse_tolerance="0" />
    <inkscape:path-effect
       effect="spiro"
       id="path-effect86-0-0-9"
       is_visible="true"
       lpeversion="1" />
    <inkscape:path-effect
       effect="skeletal"
       id="path-effect88-1-1-9"
       is_visible="true"
       lpeversion="1"
       pattern="M 0,4.9921382 C 0,2.2364779 2.2364779,0 4.9921382,0 c 2.7556604,0 4.9921383,2.2364779 4.9921383,4.9921382 0,2.7556604 -2.2364779,4.9921383 -4.9921383,4.9921383 C 2.2364779,9.9842765 0,7.7477986 0,4.9921382 Z"
       copytype="single_stretched"
       prop_scale="1"
       scale_y_rel="false"
       spacing="0"
       normal_offset="0"
       tang_offset="0"
       prop_units="false"
       vertical_pattern="false"
       hide_knot="false"
       fuse_tolerance="0" />
  </defs>
  <g
     inkscape:label="Layer 1"
     inkscape:groupmode="layer"
     id="layer1"
     style="display:inline">
    <path
       id="rect1"
       style="fill:#ff9955;stroke:#000000;stroke-width:1;stroke-dasharray:none;stroke-opacity:1"
       d="m 104.65976,92.749377 a 15.965016,15.965016 0 0 0 -15.965432,15.964913 15.965016,15.965016 0 0 0 15.965432,15.96492 15.965016,15.965016 0 0 0 15.96492,-15.96492 15.965016,15.965016 0 0 0 -15.96492,-15.964913 z m 0.34003,32.943213 c -2.75417,0 -5.263352,0.965 -7.177854,2.56056 -2.501128,-0.12467 -5.869735,2.87367 -8.063074,7.39283 L 78.91508,157.98829 c -2.513269,5.17834 -2.502768,10.33403 0.02325,11.56002 2.526023,1.22598 6.582817,-1.95611 9.096086,-7.13445 L 94.1033,149.9092 v 11.00811 c 0,2.44871 0.879355,4.6941 2.354895,6.46627 -0.862153,2.31819 -1.509661,5.30181 -1.789555,8.6186 l -2.895947,34.31522 c -0.16561,1.96249 -0.186453,3.85321 -0.08217,5.59449 h -3.450435 c -1.854717,0 -3.347599,2.2606 -3.347599,5.06842 0,2.80782 1.492882,5.06791 3.347599,5.06791 h 8.002095 c 1.668529,0 3.044761,-1.82902 3.304192,-4.24057 1.111945,-2.44254 1.961755,-5.90919 2.293925,-9.84539 l 2.89594,-34.31574 c 0.18961,-2.24693 0.18944,-4.39944 0.0289,-6.34173 0.0781,0.002 0.15614,0.003 0.23461,0.003 0.15874,0 0.31683,-0.003 0.47388,-0.01 -0.15756,1.93293 -0.15641,4.07295 0.032,6.30608 l 2.89595,34.31522 c 0.67117,7.95349 3.45644,13.99007 6.2451,13.53457 0.12639,-0.0206 0.25077,-0.0541 0.37259,-0.10025 h 7.321 c 1.85471,0 3.34811,-2.26061 3.34811,-5.06842 0,-2.80782 -1.4934,-5.06843 -3.34811,-5.06843 h -3.75636 c 0.064,-1.55732 0.0299,-3.2219 -0.11524,-4.94182 l -2.89543,-34.31521 c -0.28697,-3.40056 -0.96076,-6.45068 -1.8557,-8.79275 1.36913,-1.73681 2.17919,-3.89958 2.17919,-6.24923 v -8.21242 l 4.45864,9.18652 c 2.51327,5.17834 6.57007,8.36043 9.09609,7.13445 2.52602,-1.22599 2.53652,-6.38168 0.0233,-11.56002 L 118.631,135.12354 c -1.88208,-3.87784 -4.62979,-6.63611 -6.95203,-7.26209 -1.84231,-1.36054 -4.15814,-2.16886 -6.67918,-2.16886 z" />
    <g
       id="g81"
       transform="translate(-0.33990235,2.0394125)">
      <ellipse
         style="fill:#000000;stroke-width:0.264583"
         id="path7"
         cx="93.762802"
         cy="104.65955"
         rx="2.0273037"
         ry="1.7738907" />
      <ellipse
         style="fill:#000000;stroke-width:0.264583"
         id="path7-9"
         cx="115.64175"
         cy="108.99716"
         rx="2.0273037"
         ry="1.7738907" />
      <path
         style="fill:#000000;stroke:none;stroke-width:0.264583"
         d="m 151.54095,217.42833 c 0.68849,0.36597 0.95047,1.37519 1.26123,2.62 0.30902,1.23786 0.69878,2.83244 1.52845,4.22161 0.75479,1.2935 1.99232,2.62859 3.44242,3.35998 0.90713,0.47371 2.02195,0.79104 3.12091,0.85052 0.18949,0.0103 0.37666,0.0127 0.56041,0.007 1.28763,-0.0246 2.63985,-0.44699 3.69034,-1.06083 0,0 0,0 0,0 1.2855,-0.73471 2.36483,-1.90951 3.09118,-3.06211 0,0 0,0 0,0 1.58886,-2.48816 1.73852,-5.38087 3.07128,-5.92264 0.8224,-0.33431 4.58408,1.38887 3.994,7.73566 0,0 0,0 0,0 -0.26124,2.7172 -1.54186,5.91932 -4.29416,8.46423 0,0 0,1e-5 0,1e-5 -2.31951,2.12837 -5.47704,3.61132 -9.10374,3.80859 -0.51154,0.0258 -1.02499,0.0254 -1.53846,-0.002 -3.00467,-0.15835 -5.74538,-1.21115 -7.96038,-2.83977 -3.48658,-2.58945 -5.20062,-6.28472 -5.55702,-9.46823 -0.80687,-7.54903 4.03518,-9.06238 4.69354,-8.71242 z"
         id="path19"
         inkscape:original-d="m 151.54095,217.42833 c -6.14941,-3.89304 -2.75465,10.48381 3.54779,14.19112 13.37946,7.87028 16.21843,-4.77163 16.21843,-13.17747"
         inkscape:path-effect="#path-effect20;#path-effect21"
         transform="matrix(0.22044935,0,0,0.22044935,68.822662,59.383305)" />
    </g>
  </g>
  <g
     inkscape:groupmode="layer"
     id="layer3"
     inkscape:label="Floating/Free-Fall"
     style="display:none">
    <path
       id="path88"
       style="fill:#ff9955;fill-opacity:1;stroke:#000000;stroke-opacity:1;paint-order:markers fill stroke"
       d="m 96.133667,112.17455 c -0.873776,-0.005 -1.758682,0.1656 -2.60811,0.53278 l -8.013981,3.46387 c -3.397709,1.46872 -4.899956,5.50361 -3.36827,9.047 0.06357,0.14705 0.131344,0.29098 0.203089,0.43149 0.282412,4.14315 1.643375,8.99187 3.887101,13.14546 l 8.552966,15.83314 c -1.533405,0.45268 -2.966811,1.36434 -4.065385,2.66443 -1.135924,0.98707 -2.245427,2.34274 -3.238562,4.03232 L 72.17854,187.36066 c -0.985453,1.6765 -1.745259,3.49206 -2.266012,5.30975 l -6.431132,0.0527 c -3.701436,0.0303 -6.655954,3.16217 -6.624401,7.02231 0.03155,3.86014 3.036653,6.94353 6.73809,6.91327 l 8.730216,-0.0713 c 1.632986,-0.0134 3.120597,-0.63049 4.27054,-1.64744 1.622904,-0.95245 3.268827,-2.67934 4.679818,-5.0798 l 15.303976,-26.03562 c 0.449681,-0.76502 0.852246,-1.55942 1.206644,-2.36936 l 10.244341,5.64151 c 1.78123,0.98089 3.85901,1.1091 5.77329,0.5209 3.05054,-0.0875 6.13078,-1.34488 8.24807,-3.62613 l 13.81415,-14.88437 1.28002,3.06338 -4.92476,2.36265 c -3.70473,1.77722 -5.83362,5.3288 -4.77336,7.96282 1.06027,2.63402 4.8963,3.32389 8.60103,1.54668 l 5.04724,-2.42104 0.2806,0.67127 -12.32121,12.75478 c -2.85482,2.95525 -3.61534,7.02505 -1.70481,9.12554 1.91054,2.10049 5.74725,1.41271 8.60206,-1.54254 l 12.84005,-13.29221 c 0.52509,-0.54357 0.9793,-1.12515 1.35909,-1.72496 1.89868,-1.64481 2.34965,-5.22858 0.94309,-8.59431 l -0.76378,-1.82831 2.38074,-1.14205 c 2.2487,-1.07874 3.91687,-2.81096 4.64364,-4.59507 0.48842,-0.42579 0.85641,-0.95734 1.06712,-1.58543 0.90307,-2.69197 -1.43173,-6.11161 -5.23482,-7.66723 l -14.56087,-5.95571 c -0.48885,-0.53751 -1.07154,-1.02668 -1.74615,-1.45211 -4.28798,-2.70417 -10.62245,-1.77504 -14.20327,2.08308 l -10.06088,10.83913 c -0.35118,-0.80072 -0.73325,-1.58669 -1.14515,-2.34921 l -15.430067,-28.56415 3.013253,-1.30276 c 3.397704,-1.46872 4.899954,-5.50413 3.368274,-9.04751 -1.14877,-2.65754 -3.668216,-4.26103 -6.289543,-4.27726 z m 36.088233,0.33279 a 14.955689,14.955689 0 0 0 -14.95567,14.95568 14.955689,14.955689 0 0 0 14.95567,14.95568 14.955689,14.955689 0 0 0 14.95568,-14.95568 14.955689,14.955689 0 0 0 -14.95568,-14.95568 z" />
    <g
       id="g92"
       transform="translate(1.3596085,-0.50985342)">
      <path
         style="fill:#000000;stroke:none;stroke-width:0.264583"
         d="m 151.54095,217.42833 c 0.68849,0.36597 0.95047,1.37519 1.26123,2.62 0.30902,1.23786 0.69878,2.83244 1.52845,4.22161 0.75479,1.2935 1.99232,2.62859 3.44242,3.35998 0.90713,0.47371 2.02195,0.79104 3.12091,0.85052 0.18949,0.0103 0.37666,0.0127 0.56041,0.007 1.28763,-0.0246 2.63985,-0.44699 3.69034,-1.06083 0,0 0,0 0,0 1.2855,-0.73471 2.36483,-1.90951 3.09118,-3.06211 0,0 0,0 0,0 1.58886,-2.48816 1.73852,-5.38087 3.07128,-5.92264 0.8224,-0.33431 4.58408,1.38887 3.994,7.73566 0,0 0,0 0,0 -0.26124,2.7172 -1.54186,5.91932 -4.29416,8.46423 0,0 0,1e-5 0,1e-5 -2.31951,2.12837 -5.47704,3.61132 -9.10374,3.80859 -0.51154,0.0258 -1.02499,0.0254 -1.53846,-0.002 -3.00467,-0.15835 -5.74538,-1.21115 -7.96038,-2.83977 -3.48658,-2.58945 -5.20062,-6.28472 -5.55702,-9.46823 -0.80687,-7.54903 4.03518,-9.06238 4.69354,-8.71242 z"
         id="path85-1-0"
         inkscape:original-d="m 151.54095,217.42833 c -6.14941,-3.89304 -2.75465,10.48381 3.54779,14.19112 13.37946,7.87028 16.21843,-4.77163 16.21843,-13.17747"
         inkscape:path-effect="#path-effect86-0-0;#path-effect88-1-1"
         transform="matrix(-0.33275545,0.15909742,-0.14563098,-0.17880124,209.01427,145.21338)" />
      <path
         style="fill:#000000;stroke:none;stroke-width:0.264583"
         d="m 151.54095,217.42833 c 0.68849,0.36597 0.95047,1.37519 1.26123,2.62 0.30902,1.23786 0.69878,2.83244 1.52845,4.22161 0.75479,1.2935 1.99232,2.62859 3.44242,3.35998 0.90713,0.47371 2.02195,0.79104 3.12091,0.85052 0.18949,0.0103 0.37666,0.0127 0.56041,0.007 1.28763,-0.0246 2.63985,-0.44699 3.69034,-1.06083 0,0 0,0 0,0 1.2855,-0.73471 2.36483,-1.90951 3.09118,-3.06211 0,0 0,0 0,0 1.58886,-2.48816 1.73852,-5.38087 3.07128,-5.92264 0.8224,-0.33431 4.58408,1.38887 3.994,7.73566 0,0 0,0 0,0 -0.26124,2.7172 -1.54186,5.91932 -4.29416,8.46423 0,0 0,1e-5 0,1e-5 -2.31951,2.12837 -5.47704,3.61132 -9.10374,3.80859 -0.51154,0.0258 -1.02499,0.0254 -1.53846,-0.002 -3.00467,-0.15835 -5.74538,-1.21115 -7.96038,-2.83977 -3.48658,-2.58945 -5.20062,-6.28472 -5.55702,-9.46823 -0.80687,-7.54903 4.03518,-9.06238 4.69354,-8.71242 z"
         id="path85-1-0-8"
         inkscape:original-d="m 151.54095,217.42833 c -6.14941,-3.89304 -2.75465,10.48381 3.54779,14.19112 13.37946,7.87028 16.21843,-4.77163 16.21843,-13.17747"
         inkscape:path-effect="#path-effect86-0-0-9;#path-effect88-1-1-9"
         transform="matrix(-0.33275545,0.15909742,-0.14563098,-0.17880124,223.94962,138.85052)" />
      <path
         style="fill:#1a1a1a;fill-opacity:1;stroke:none;stroke-width:0.264583;paint-order:markers fill stroke"
         d="m 128.14307,136.30072 c -0.0893,-1.37739 0.73479,-2.67315 1.83648,-3.75602 1.11455,-1.09551 2.43466,-1.91302 3.56981,-2.60499 1.5e-4,-9e-5 0.0207,-0.0126 0.0209,-0.0127 0.77111,-0.42511 1.63445,-0.60743 2.79611,-1.01926 0.82444,-0.29229 2.56757,-1.10458 3.67331,-1.10459 1.33365,0 2.72986,1.02259 2.85113,3.47551 0.11642,2.35481 -1.18288,5.55885 -4.49357,7.38811 -0.0166,0.009 -0.0332,0.0175 -0.0499,0.0262 -2.81576,1.47102 -5.49053,1.49346 -7.29734,0.86078 -1.82295,-0.63834 -2.81941,-1.90406 -2.90692,-3.25304 z"
         id="path91"
         inkscape:path-effect="#path-effect91"
         inkscape:original-d="m 128.14307,136.30072 c 5.04628,-0.32735 11.89657,-2.18369 11.89657,-8.49756" />
    </g>
    <rect
       style="fill:#ff9955;fill-opacity:1;stroke:#000000;stroke-opacity:1;paint-order:markers fill stroke"
       id="rect92"
       width="32.547379"
       height="15.580642"
       x="-193.38272"
       y="-103.16281"
       rx="7.2459798"
       ry="7.7903209"
       transform="matrix(-0.87596585,-0.48237312,0.53003886,-0.84797335,0,0)" />
    <rect
       style="fill:#ff9955;fill-opacity:1;stroke:#000000;stroke-opacity:1;paint-order:markers fill stroke"
       id="rect93"
       width="33.315048"
       height="10.250553"
       x="192.24278"
       y="-74.700256"
       rx="7.4168854"
       ry="5.1252766"
       transform="matrix(0.38559056,0.92266999,-0.89585034,0.4443559,0,0)" />
    <ellipse
       style="fill:#ff9955;fill-opacity:1;stroke-width:1.03237;paint-order:markers fill stroke"
       id="path110"
       cx="145.19965"
       cy="175.57349"
       rx="5.1762724"
       ry="4.0045805" />
    <ellipse
       style="fill:#ff9955;fill-opacity:1;stroke-width:1.4056;paint-order:markers fill stroke"
       id="path110-3"
       cx="135.13113"
       cy="151.94725"
       rx="5.6436377"
       ry="6.8087721" />
    <ellipse
       style="fill:#ff9955;fill-opacity:1;stroke-width:1.72465;paint-order:markers fill stroke"
       id="path110-3-5"
       cx="115.7855"
       cy="166.94633"
       rx="5.8238978"
       ry="9.9332838" />
    <path
       style="fill:#ff9955;fill-opacity:1;stroke-width:1.87794;paint-order:markers fill stroke"
       id="path110-3-5-8"
       transform="matrix(0.94552878,0.32553851,-0.39134263,0.92024505,0,0)"
       sodipodi:type="arc"
       sodipodi:cx="151.01065"
       sodipodi:cy="126.43575"
       sodipodi:rx="6.5954127"
       sodipodi:ry="10.399904"
       sodipodi:start="0"
       sodipodi:end="5.3296548"
       sodipodi:arc-type="slice"
       d="m 157.60606,126.43575 a 6.5954127,10.399904 0 0 1 -5.03803,10.10581 6.5954127,10.399904 0 0 1 -7.4173,-5.33321 6.5954127,10.399904 0 0 1 1.53512,-12.62449 6.5954127,10.399904 0 0 1 8.14228,-0.62886 l -3.81748,8.48075 z" />
  </g>
  <g
     inkscape:groupmode="layer"
     id="layer4"
     inkscape:label="Refrence lines"
     style="display:none" />
  <g
     inkscape:groupmode="layer"
     id="layer2"
     inkscape:label="Crouched"
     style="display:none">
    <path
       id="rect61"
       style="display:inline;fill:#ff9955;stroke:#000000;stroke-width:0.968;stroke-dasharray:none;stroke-dashoffset:0;stroke-opacity:1"
       d="m 105.34007,112.43853 a 15.965016,15.965016 0 0 0 -15.964919,15.96491 15.965016,15.965016 0 0 0 15.964919,15.96543 15.965016,15.965016 0 0 0 15.96492,-15.96543 15.965016,15.965016 0 0 0 -15.96492,-15.96491 z m -0.62063,32.94372 c -3.19874,0 -6.067429,1.30104 -8.057389,3.38067 -0.31666,-0.52253 -0.80068,-0.91363 -1.45263,-1.12758 -2.52602,-0.82896 -6.58333,1.32262 -9.0966,4.824 l -10.84327,15.10657 c -0.88624,1.23468 -1.45872,2.46767 -1.71772,3.58273 -0.0852,0.2309 -0.12798,0.48186 -0.12867,0.74879 -0.17974,1.64941 0.40657,2.9458 1.75803,3.4463 0.0636,0.0667 0.12875,0.13371 0.19585,0.2005 l 11.28303,11.23084 c 0.52953,0.52707 1.12543,1.01275 1.7601,1.44746 l -11.57138,6.62285 c -3.52757,2.01907 -5.03108,5.10441 -3.37137,6.91793 0.15984,0.17465 0.34304,0.33116 0.54673,0.46922 0.29022,1.08903 0.7983,2.2247 1.52446,3.32434 l 6.8988,10.44743 c -1.51399,0.48747 -2.64273,2.51527 -2.64273,4.9568 0,2.80782 1.49288,5.06842 3.3476,5.06842 h 8.00261 c 0.28145,0 0.55461,-0.0523 0.81545,-0.15037 1.02333,0.19813 1.99204,0.0921 2.79828,-0.36897 2.43041,-1.38988 2.43574,-5.46382 0.0119,-9.13433 l -10.45569,-15.83314 13.7356,-7.86154 c 1.19726,-0.68527 2.161439,-1.49365 2.847879,-2.33319 1.18523,0.41943 2.46913,0.64854 3.81114,0.64854 1.50672,0 2.9398,-0.28858 4.24263,-0.81132 0.69239,0.89765 1.70304,1.76645 2.9776,2.49597 l 13.73559,7.86154 -10.45569,15.83314 c -2.42385,3.67051 -2.41852,7.74445 0.0119,9.13433 0.80624,0.46106 1.77495,0.5671 2.79828,0.36897 0.26084,0.0981 0.534,0.15037 0.81545,0.15037 h 8.0021 c 1.85471,0 3.34811,-2.2606 3.34811,-5.06842 0,-2.44128 -1.12897,-4.46907 -2.64273,-4.9568 l 6.8988,-10.44743 c 0.72616,-1.09964 1.23424,-2.23531 1.52446,-3.32434 0.20369,-0.13806 0.38689,-0.29457 0.54673,-0.46922 1.65971,-1.81352 0.15568,-4.89886 -3.37188,-6.91793 l -10.84895,-6.20944 c 0.50415,-0.36917 0.97908,-0.77128 1.41025,-1.20044 l 11.28303,-11.23084 c 0.0671,-0.0668 0.13273,-0.13325 0.19637,-0.19999 1.35145,-0.50049 1.93775,-1.7969 1.75803,-3.4463 -6.9e-4,-0.26696 -0.0434,-0.51786 -0.12867,-0.74879 -0.25901,-1.11504 -0.83149,-2.34807 -1.71773,-3.58273 l -10.84379,-15.10657 c -2.51327,-3.50138 -6.57006,-5.65296 -9.09609,-4.824 -0.75921,0.24915 -1.29128,0.73829 -1.59576,1.39578 -1.97521,-2.61409 -5.19618,-4.30981 -8.84804,-4.30981 z m 10.89649,11.39362 10.36784,14.44356 c 0.35616,0.49619 0.74349,0.96517 1.1529,1.4025 -0.5862,0.4115 -1.13703,0.86699 -1.63039,1.35806 l -10.75645,10.70684 c 0.5579,-1.25141 0.8661,-2.63042 0.8661,-4.08037 z m -21.793499,0.64027 v 23.19032 c 0,0.60919 0.0547,1.20605 0.15916,1.78593 l -9.11572,-9.07283 c -0.49336,-0.49107 -1.04366,-0.94656 -1.62988,-1.35805 0.40942,-0.43733 0.79674,-0.90631 1.1529,-1.4025 z" />
    <g
       id="g79"
       transform="translate(67.300603,62.202073)">
      <path
         style="display:inline;fill:#000000;stroke-width:0.264583"
         d="m 30.715911,66.998956 c -2.70307,0 -2.70307,0 0,0 z"
         id="path68" />
      <path
         style="display:inline;fill:#000000;stroke:none;stroke-width:0.264583"
         d="m 151.54095,217.42833 c 0.68849,0.36597 0.95047,1.37519 1.26123,2.62 0.30902,1.23786 0.69878,2.83244 1.52845,4.22161 0.75479,1.2935 1.99232,2.62859 3.44242,3.35998 0.90713,0.47371 2.02195,0.79104 3.12091,0.85052 0.18949,0.0103 0.37666,0.0127 0.56041,0.007 1.28763,-0.0246 2.63985,-0.44699 3.69034,-1.06083 0,0 0,0 0,0 1.2855,-0.73471 2.36483,-1.90951 3.09118,-3.06211 0,0 0,0 0,0 1.58886,-2.48816 1.73852,-5.38087 3.07128,-5.92264 0.8224,-0.33431 4.58408,1.38887 3.994,7.73566 0,0 0,0 0,0 -0.26124,2.7172 -1.54186,5.91932 -4.29416,8.46423 0,0 0,1e-5 0,1e-5 -2.31951,2.12837 -5.47704,3.61132 -9.10374,3.80859 -0.51154,0.0258 -1.02499,0.0254 -1.53846,-0.002 -3.00467,-0.15835 -5.74538,-1.21115 -7.96038,-2.83977 -3.48658,-2.58945 -5.20062,-6.28472 -5.55702,-9.46823 -0.80687,-7.54903 4.03518,-9.06238 4.69354,-8.71242 z"
         id="path69"
         inkscape:original-d="m 151.54095,217.42833 c -6.14941,-3.89304 -2.75465,10.48381 3.54779,14.19112 13.37946,7.87028 16.21843,-4.77163 16.21843,-13.17747"
         inkscape:path-effect="#path-effect73;#path-effect75"
         transform="matrix(-0.35464612,-0.00456077,0.01490066,-0.10854944,91.208501,98.817216)" />
      <path
         style="fill:#000000;stroke:none;stroke-width:0.264583"
         d="m 29.562684,116.80866 c -0.356715,-0.61831 0.341281,-2.50787 3.521416,-3.13818 1.422363,-0.31755 3.064817,-0.38042 4.866872,-0.18569 0,1e-5 2e-6,1e-5 2e-6,1e-5 2.547508,0.2733 5.284049,1.07432 7.73821,1.49559 1.815201,0.33661 4.011521,0.49147 6.654944,0.89701 0.980888,0.14298 2.101628,0.34488 3.326799,0.67721 0.285872,0.0472 0.870379,0.24501 1.734435,0.65179 0.144637,-0.0907 0.769227,0.41495 1.850529,1.5441 -10e-7,0 7.2e-5,1.1e-4 7.2e-5,1.1e-4 1.302239,1.94687 1.153823,4.16632 -0.458829,6.62266 -1.307388,1.07757 -2.110544,1.54494 -2.303628,1.48683 -0.662028,0.28161 -1.250399,0.48904 -1.754613,0.64729 -0.08166,0.0262 -0.163231,0.0521 -0.244717,0.0777 -1.280204,0.40162 -2.512654,0.71571 -3.66122,0.98151 -1.229319,0.28675 -2.435485,0.53527 -3.603527,0.75323 -0.40553,0.0758 -0.806078,0.14759 -1.20019,0.21603 0,0 -3e-6,0 -3e-6,0 -0.272816,0.057 -0.382112,0.0651 -0.331032,0.0441 -5.993439,1.25263 -10.901845,2.19167 -14.774218,2.47861 -0.53885,0.0679 -0.972761,0.0694 -1.304052,0.0562 -0.765623,8.6e-4 -1.460755,-0.0325 -2.036583,-0.0884 -0.67342,-0.0246 -1.261679,-0.23279 -1.560011,-0.33732 0,0 0,0 0,0 l 0,0 c -0.03,-0.24029 0.0039,-0.49799 0.05651,-0.71682 l 0,0 c -0.23029,-0.26448 -0.388572,-0.42138 -0.463312,-0.51831 -0.118748,-0.154 -0.08519,-0.1773 -0.04355,-0.14847 0,0 0,0 0,0 -0.01724,0.22924 0.144141,0.45389 0.144141,0.68372 0,0.19325 -0.0656,0.50226 -0.389602,0.64917 0,0 0,0 0,0 -0.02238,0.0186 -0.102251,-0.0205 -0.257361,-0.24641 -0.101148,-0.14729 -0.211495,-0.36447 -0.395062,-0.67107 l 0,0 c 0.134607,-0.29029 0.282384,-0.61968 0.368974,-0.91586 l 0,0 c 0,0 1e-6,0 1e-6,0 0.325173,-0.53368 0.809145,-0.94039 1.374879,-1.42487 0.499376,-0.40597 1.090396,-0.81085 1.777402,-1.2313 0.369646,-0.21393 0.728898,-0.41526 0.966404,-0.59394 3.153178,-1.90815 8.143332,-4.24078 14.067428,-6.17387 0.231514,-0.0665 0.461841,-0.12325 0.693355,-0.18975 0,0 10e-7,0 10e-7,0 0.37833,-0.10569 0.754509,-0.20982 1.13381,-0.31463 1.381821,-0.38173 1.951975,-0.5359 3.333797,-0.91762 1.070696,-0.29812 2.130897,-0.58874 3.105169,-0.89682 0.06241,-0.0197 0.124461,-0.0395 0.186169,-0.0594 0.400381,-0.13264 0.702456,-0.2277 0.904324,-0.31409 0.332962,-0.28194 0.08187,-0.0264 -0.824323,0.64998 -1.552156,2.39584 -1.7027,4.51404 -0.451835,6.39267 0,0 7e-5,10e-5 7e-5,10e-5 0.989891,1.00773 1.474211,1.43946 1.484499,1.27841 0.336102,0.13079 0.356324,0.16473 0.076,0.0445 -0.657332,-0.2223 -1.465017,-0.41154 -2.346839,-0.62326 -2.404849,-0.56065 -4.726839,-1.04934 -7.28518,-1.98715 -2.740675,-1.04227 -5.725719,-2.77099 -7.057282,-3.45035 0,0 -2e-6,0 -2e-6,0 -1.499835,-0.73815 -2.128581,-1.08634 -3.216699,-1.5341 -1.456883,-0.56368 -3.12595,-1.17131 -3.402553,-1.65076 z"
         id="path71"
         inkscape:path-effect="#path-effect77"
         inkscape:original-d="m 29.562684,116.80866 c 3.959974,-2.28458 11.082911,1.29808 14.901518,2.40347 3.751556,1.08598 3.599567,0.80008 6.970062,1.44208 2.158037,0.41105 4.124962,0.92233 3.845554,1.20174 -1.001598,1.00159 -10.50722,3.04177 -10.815616,3.12451 -8.389876,2.25094 -1.991638,0.3489 -14.420823,4.32624 -0.460764,0.14745 -6.209742,1.68243 -4.326247,1.68243"
         transform="matrix(-0.34276409,0,0,0.15384579,61.584951,50.969606)" />
      <path
         style="display:inline;fill:#000000;stroke:none;stroke-width:0.264583"
         d="m 29.562684,116.80866 c -0.356715,-0.61831 0.341281,-2.50787 3.521416,-3.13818 1.422363,-0.31755 3.064817,-0.38042 4.866872,-0.18569 0,1e-5 2e-6,1e-5 2e-6,1e-5 2.547508,0.2733 5.284049,1.07432 7.73821,1.49559 1.815201,0.33661 4.011521,0.49147 6.654944,0.89701 0.980888,0.14298 2.101628,0.34488 3.326799,0.67721 0.285872,0.0472 0.870379,0.24501 1.734435,0.65179 0.144637,-0.0907 0.769227,0.41495 1.850529,1.5441 -10e-7,0 7.2e-5,1.1e-4 7.2e-5,1.1e-4 1.302239,1.94687 1.153823,4.16632 -0.458829,6.62266 -1.307388,1.07757 -2.110544,1.54494 -2.303628,1.48683 -0.662028,0.28161 -1.250399,0.48904 -1.754613,0.64729 -0.08166,0.0262 -0.163231,0.0521 -0.244717,0.0777 -1.280204,0.40162 -2.512654,0.71571 -3.66122,0.98151 -1.229319,0.28675 -2.435485,0.53527 -3.603527,0.75323 -0.40553,0.0758 -0.806078,0.14759 -1.20019,0.21603 0,0 -3e-6,0 -3e-6,0 -0.272816,0.057 -0.382112,0.0651 -0.331032,0.0441 -5.993439,1.25263 -10.901845,2.19167 -14.774218,2.47861 -0.53885,0.0679 -0.972761,0.0694 -1.304052,0.0562 -0.765623,8.6e-4 -1.460755,-0.0325 -2.036583,-0.0884 -0.67342,-0.0246 -1.261679,-0.23279 -1.560011,-0.33732 0,0 0,0 0,0 l 0,0 c -0.03,-0.24029 0.0039,-0.49799 0.05651,-0.71682 l 0,0 c -0.23029,-0.26448 -0.388572,-0.42138 -0.463312,-0.51831 -0.118748,-0.154 -0.08519,-0.1773 -0.04355,-0.14847 0,0 0,0 0,0 -0.01724,0.22924 0.144141,0.45389 0.144141,0.68372 0,0.19325 -0.0656,0.50226 -0.389602,0.64917 0,0 0,0 0,0 -0.02238,0.0186 -0.102251,-0.0205 -0.257361,-0.24641 -0.101148,-0.14729 -0.211495,-0.36447 -0.395062,-0.67107 l 0,0 c 0.134607,-0.29029 0.282384,-0.61968 0.368974,-0.91586 l 0,0 c 0,0 1e-6,0 1e-6,0 0.325173,-0.53368 0.809145,-0.94039 1.374879,-1.42487 0.499376,-0.40597 1.090396,-0.81085 1.777402,-1.2313 0.369646,-0.21393 0.728898,-0.41526 0.966404,-0.59394 3.153178,-1.90815 8.143332,-4.24078 14.067428,-6.17387 0.231514,-0.0665 0.461841,-0.12325 0.693355,-0.18975 0,0 10e-7,0 10e-7,0 0.37833,-0.10569 0.754509,-0.20982 1.13381,-0.31463 1.381821,-0.38173 1.951975,-0.5359 3.333797,-0.91762 1.070696,-0.29812 2.130897,-0.58874 3.105169,-0.89682 0.06241,-0.0197 0.124461,-0.0395 0.186169,-0.0594 0.400381,-0.13264 0.702456,-0.2277 0.904324,-0.31409 0.332962,-0.28194 0.08187,-0.0264 -0.824323,0.64998 -1.552156,2.39584 -1.7027,4.51404 -0.451835,6.39267 0,0 7e-5,10e-5 7e-5,10e-5 0.989891,1.00773 1.474211,1.43946 1.484499,1.27841 0.336102,0.13079 0.356324,0.16473 0.076,0.0445 -0.657332,-0.2223 -1.465017,-0.41154 -2.346839,-0.62326 -2.404849,-0.56065 -4.726839,-1.04934 -7.28518,-1.98715 -2.740675,-1.04227 -5.725719,-2.77099 -7.057282,-3.45035 0,0 -2e-6,0 -2e-6,0 -1.499835,-0.73815 -2.128581,-1.08634 -3.216699,-1.5341 -1.456883,-0.56368 -3.12595,-1.17131 -3.402553,-1.65076 z"
         id="path72"
         inkscape:path-effect="#path-effect79"
         inkscape:original-d="m 29.562684,116.80866 c 3.959974,-2.28458 11.082911,1.29808 14.901518,2.40347 3.751556,1.08598 3.599567,0.80008 6.970062,1.44208 2.158037,0.41105 4.124962,0.92233 3.845554,1.20174 -1.001598,1.00159 -10.50722,3.04177 -10.815616,3.12451 -8.389876,2.25094 -1.991638,0.3489 -14.420823,4.32624 -0.460764,0.14745 -6.209742,1.68243 -4.326247,1.68243"
         transform="matrix(0.330891,0.08943358,-0.04014125,0.14851669,18.852337,44.645086)" />
    </g>
    <g
       id="g80"
       transform="translate(67.640505,59.142955)">
      <circle
         style="fill:#ff9955;fill-opacity:1;stroke:#000000;stroke-opacity:1;paint-order:markers fill stroke"
         id="path79"
         cx="23.580702"
         cy="126.74096"
         r="4.0363369" />
      <rect
         style="fill:#ff9955;fill-opacity:1;paint-order:markers fill stroke"
         id="rect80"
         width="7.3078938"
         height="18.269733"
         x="-74.492668"
         y="91.283051"
         rx="10.896758"
         ry="2.1942496"
         transform="rotate(-43.910651)" />
      <circle
         style="display:inline;fill:#ff9955;fill-opacity:1;stroke:#000000;stroke-opacity:1;paint-order:markers fill stroke"
         id="path79-1"
         cx="-50.989014"
         cy="127.53102"
         r="4.0363369"
         transform="scale(-1,1)" />
      <rect
         style="display:inline;fill:#ff9955;fill-opacity:1;paint-order:markers fill stroke"
         id="rect80-3"
         width="7.3078938"
         height="18.269733"
         x="-128.76228"
         y="40.135471"
         rx="10.896758"
         ry="2.1942496"
         transform="matrix(-0.7204222,-0.69353576,-0.69353576,0.7204222,0,0)" />
    </g>
  </g>
</svg>
